<?xml version='1.0' encoding='utf-8'?>
<svg xmlns="http://www.w3.org/2000/svg" enable-background="new 0 0 500 500" version="1.1" viewBox="0 0 500 500"> <path d="m161.6 185.7c5.9-0.1 1.6 55.1-27.7 65.3-2 0.7-3.9 2.9-4.4 4.9-8.5 39-14.1 35.4-14.8 40.1-0.8 4.8 8.5 11 8.5 11l8.3 0.3c5.3-3.3-2.5-12-2.5-12 0.6-15.3 12.7-28.3 12.7-28.3 2.2 0 3.3 19.6 4.5 30.5 0.5 4.9 2 6.5 2 6.5 15.1 3.5 18.5-0.3 18.5-0.3 2.9-10.4-9.8-9.8-9.8-9.8-11.8-26.5 12.3-40.5 12.3-40.5s14.7-11.3 24.7-19.3c6.8-5.4 10.1-13.7 11.6-18.5 0.9-2.8 2.5-5.3 4.8-7.2 12.9-11.1 20.8-8.2 53.4 9.2 35.8 19 47 13.5 47 13.5 6 9 2.3 60 6.5 61.5s4.8 21.8 7.3 23.8 17.5 1.8 20.5 1.5 2.3-4.5 2.3-4.5 10 1.8 10.5-2.5c0.1-1.1-0.2-2.1-0.6-3.2-1.7-3.5-5.4-5.6-9.3-5.6-1.7 0-3.3-1-4-2.6l-4.3-8.5c-1.1-2.3-1.6-4.8-1.5-7.4 0.4-11.4 1.6-44.5 3.6-53.4 2.5-10.8 15.5-19 15-32.5s22.5-47.5 22.5-47.5c11.9 3 18 2.5 21.1 1.3 1.9-0.7 4-1 6-0.7 0.5 0.1 1 0.1 1.6 0.1 3.8-0.3 7-16.8 7-16.8-1.9-2.1-14.3-8.8-14.3-8.8-1.3-2.5-1.3-6.5-1.3-6.5-10.8-16-25-12.8-25-12.8-11.3 0-15.5 5-15.5 5-10 4-10.5 10.5-10.5 10.5s-4 2.5-11.8 13-17 11-17 11-22.5 5-25 5.8-15.8 3.5-15.8 3.5c-4.9 1.8-59.3-3.3-71.8-2.3-6.1 0.5-14.3 2.6-21.1 4.7-7 2.1-12.6 7.3-19.6 9.4-49.2 14.6-60.2-5.5-99.9-5.5-2.9 0-2.9 4.5 0 4.8 21 2.5 68.1 20.3 95.3 19.8z"/> <path d="m173.6 161.3"/> </svg>